<svg width="743" height="397" viewBox="0 0 743 397" fill="none" xmlns="http://www.w3.org/2000/svg">
<g filter="url(#filter0_d_239_221)">
<circle cx="371.5" cy="198.5" r="176.5" fill="#120036"/>
</g>
<path d="M92.306 126.3H95.036V141H92.306V126.3ZM84.704 141H81.974V126.3H84.704V141ZM92.516 134.7H84.473V132.369H92.516V134.7ZM105.863 141.21C104.715 141.21 103.658 141.021 102.692 140.643C101.726 140.265 100.886 139.74 100.172 139.068C99.458 138.382 98.905 137.584 98.513 136.674C98.121 135.75 97.925 134.742 97.925 133.65C97.925 132.558 98.121 131.557 98.513 130.647C98.905 129.723 99.458 128.925 100.172 128.253C100.886 127.567 101.726 127.035 102.692 126.657C103.658 126.279 104.708 126.09 105.842 126.09C106.99 126.09 108.04 126.279 108.992 126.657C109.958 127.035 110.798 127.567 111.512 128.253C112.226 128.925 112.779 129.723 113.171 130.647C113.563 131.557 113.759 132.558 113.759 133.65C113.759 134.742 113.563 135.75 113.171 136.674C112.779 137.598 112.226 138.396 111.512 139.068C110.798 139.74 109.958 140.265 108.992 140.643C108.04 141.021 106.997 141.21 105.863 141.21ZM105.842 138.816C106.584 138.816 107.27 138.69 107.9 138.438C108.53 138.186 109.076 137.829 109.538 137.367C110 136.891 110.357 136.345 110.609 135.729C110.875 135.099 111.008 134.406 111.008 133.65C111.008 132.894 110.875 132.208 110.609 131.592C110.357 130.962 110 130.416 109.538 129.954C109.076 129.478 108.53 129.114 107.9 128.862C107.27 128.61 106.584 128.484 105.842 128.484C105.1 128.484 104.414 128.61 103.784 128.862C103.168 129.114 102.622 129.478 102.146 129.954C101.684 130.416 101.32 130.962 101.054 131.592C100.802 132.208 100.676 132.894 100.676 133.65C100.676 134.392 100.802 135.078 101.054 135.708C101.32 136.338 101.684 136.891 102.146 137.367C102.608 137.829 103.154 138.186 103.784 138.438C104.414 138.69 105.1 138.816 105.842 138.816ZM119.667 141L114.795 126.3H117.63L121.977 139.593H120.57L125.085 126.3H127.605L131.994 139.593H130.629L135.081 126.3H137.685L132.813 141H129.915L125.904 129.009H126.66L122.586 141H119.667ZM146.02 141V126.3H148.267L154.693 137.031H153.517L159.838 126.3H162.085L162.106 141H159.523L159.502 130.353H160.048L154.672 139.32H153.454L147.994 130.353H148.624V141H146.02ZM172.398 141.21C170.382 141.21 168.8 140.643 167.652 139.509C166.518 138.375 165.951 136.737 165.951 134.595V126.3H168.681V134.49C168.681 136.002 169.003 137.101 169.647 137.787C170.305 138.473 171.229 138.816 172.419 138.816C173.609 138.816 174.526 138.473 175.17 137.787C175.814 137.101 176.136 136.002 176.136 134.49V126.3H178.824V134.595C178.824 136.737 178.25 138.375 177.102 139.509C175.968 140.643 174.4 141.21 172.398 141.21ZM189.451 141.21C188.331 141.21 187.288 141.028 186.322 140.664C185.37 140.286 184.537 139.761 183.823 139.089C183.123 138.403 182.577 137.598 182.185 136.674C181.793 135.75 181.597 134.742 181.597 133.65C181.597 132.558 181.793 131.55 182.185 130.626C182.577 129.702 183.13 128.904 183.844 128.232C184.558 127.546 185.391 127.021 186.343 126.657C187.295 126.279 188.338 126.09 189.472 126.09C190.676 126.09 191.775 126.3 192.769 126.72C193.763 127.126 194.603 127.735 195.289 128.547L193.525 130.206C192.993 129.632 192.398 129.205 191.74 128.925C191.082 128.631 190.368 128.484 189.598 128.484C188.828 128.484 188.121 128.61 187.477 128.862C186.847 129.114 186.294 129.471 185.818 129.933C185.356 130.395 184.992 130.941 184.726 131.571C184.474 132.201 184.348 132.894 184.348 133.65C184.348 134.406 184.474 135.099 184.726 135.729C184.992 136.359 185.356 136.905 185.818 137.367C186.294 137.829 186.847 138.186 187.477 138.438C188.121 138.69 188.828 138.816 189.598 138.816C190.368 138.816 191.082 138.676 191.74 138.396C192.398 138.102 192.993 137.661 193.525 137.073L195.289 138.753C194.603 139.551 193.763 140.16 192.769 140.58C191.775 141 190.669 141.21 189.451 141.21ZM208.237 126.3H210.967V141H208.237V126.3ZM200.635 141H197.905V126.3H200.635V141ZM208.447 134.7H200.404V132.369H208.447V134.7ZM267.139 141V126.3H273.565C275.161 126.3 276.561 126.608 277.765 127.224C278.969 127.84 279.907 128.694 280.579 129.786C281.251 130.878 281.587 132.166 281.587 133.65C281.587 135.12 281.251 136.408 280.579 137.514C279.907 138.606 278.969 139.46 277.765 140.076C276.561 140.692 275.161 141 273.565 141H267.139ZM269.869 138.69H273.439C274.545 138.69 275.497 138.48 276.295 138.06C277.107 137.64 277.73 137.052 278.164 136.296C278.612 135.54 278.836 134.658 278.836 133.65C278.836 132.628 278.612 131.746 278.164 131.004C277.73 130.248 277.107 129.66 276.295 129.24C275.497 128.82 274.545 128.61 273.439 128.61H269.869V138.69ZM291.377 141.21C290.229 141.21 289.172 141.021 288.206 140.643C287.24 140.265 286.4 139.74 285.686 139.068C284.972 138.382 284.419 137.584 284.027 136.674C283.635 135.75 283.439 134.742 283.439 133.65C283.439 132.558 283.635 131.557 284.027 130.647C284.419 129.723 284.972 128.925 285.686 128.253C286.4 127.567 287.24 127.035 288.206 126.657C289.172 126.279 290.222 126.09 291.356 126.09C292.504 126.09 293.554 126.279 294.506 126.657C295.472 127.035 296.312 127.567 297.026 128.253C297.74 128.925 298.293 129.723 298.685 130.647C299.077 131.557 299.273 132.558 299.273 133.65C299.273 134.742 299.077 135.75 298.685 136.674C298.293 137.598 297.74 138.396 297.026 139.068C296.312 139.74 295.472 140.265 294.506 140.643C293.554 141.021 292.511 141.21 291.377 141.21ZM291.356 138.816C292.098 138.816 292.784 138.69 293.414 138.438C294.044 138.186 294.59 137.829 295.052 137.367C295.514 136.891 295.871 136.345 296.123 135.729C296.389 135.099 296.522 134.406 296.522 133.65C296.522 132.894 296.389 132.208 296.123 131.592C295.871 130.962 295.514 130.416 295.052 129.954C294.59 129.478 294.044 129.114 293.414 128.862C292.784 128.61 292.098 128.484 291.356 128.484C290.614 128.484 289.928 128.61 289.298 128.862C288.682 129.114 288.136 129.478 287.66 129.954C287.198 130.416 286.834 130.962 286.568 131.592C286.316 132.208 286.19 132.894 286.19 133.65C286.19 134.392 286.316 135.078 286.568 135.708C286.834 136.338 287.198 136.891 287.66 137.367C288.122 137.829 288.668 138.186 289.298 138.438C289.928 138.69 290.614 138.816 291.356 138.816ZM311.582 141V135.183L312.191 136.863L305.807 126.3H308.726L313.85 134.805H312.212L317.378 126.3H320.066L313.682 136.863L314.312 135.183V141H311.582ZM328.106 141.21C326.958 141.21 325.901 141.021 324.935 140.643C323.969 140.265 323.129 139.74 322.415 139.068C321.701 138.382 321.148 137.584 320.756 136.674C320.364 135.75 320.168 134.742 320.168 133.65C320.168 132.558 320.364 131.557 320.756 130.647C321.148 129.723 321.701 128.925 322.415 128.253C323.129 127.567 323.969 127.035 324.935 126.657C325.901 126.279 326.951 126.09 328.085 126.09C329.233 126.09 330.283 126.279 331.235 126.657C332.201 127.035 333.041 127.567 333.755 128.253C334.469 128.925 335.022 129.723 335.414 130.647C335.806 131.557 336.002 132.558 336.002 133.65C336.002 134.742 335.806 135.75 335.414 136.674C335.022 137.598 334.469 138.396 333.755 139.068C333.041 139.74 332.201 140.265 331.235 140.643C330.283 141.021 329.24 141.21 328.106 141.21ZM328.085 138.816C328.827 138.816 329.513 138.69 330.143 138.438C330.773 138.186 331.319 137.829 331.781 137.367C332.243 136.891 332.6 136.345 332.852 135.729C333.118 135.099 333.251 134.406 333.251 133.65C333.251 132.894 333.118 132.208 332.852 131.592C332.6 130.962 332.243 130.416 331.781 129.954C331.319 129.478 330.773 129.114 330.143 128.862C329.513 128.61 328.827 128.484 328.085 128.484C327.343 128.484 326.657 128.61 326.027 128.862C325.411 129.114 324.865 129.478 324.389 129.954C323.927 130.416 323.563 130.962 323.297 131.592C323.045 132.208 322.919 132.894 322.919 133.65C322.919 134.392 323.045 135.078 323.297 135.708C323.563 136.338 323.927 136.891 324.389 137.367C324.851 137.829 325.397 138.186 326.027 138.438C326.657 138.69 327.343 138.816 328.085 138.816ZM345.217 141.21C343.201 141.21 341.619 140.643 340.471 139.509C339.337 138.375 338.77 136.737 338.77 134.595V126.3H341.5V134.49C341.5 136.002 341.822 137.101 342.466 137.787C343.124 138.473 344.048 138.816 345.238 138.816C346.428 138.816 347.345 138.473 347.989 137.787C348.633 137.101 348.955 136.002 348.955 134.49V126.3H351.643V134.595C351.643 136.737 351.069 138.375 349.921 139.509C348.787 140.643 347.219 141.21 345.217 141.21ZM363.706 137.535L363.559 134.301L371.266 126.3H374.332L367.927 133.104L366.415 134.763L363.706 137.535ZM361.27 141V126.3H364V141H361.27ZM371.518 141L365.89 134.301L367.696 132.306L374.71 141H371.518ZM376.569 141V126.3H378.816L388.035 137.619H386.922V126.3H389.631V141H387.384L378.165 129.681H379.278V141H376.569ZM400.458 141.21C399.31 141.21 398.253 141.021 397.287 140.643C396.321 140.265 395.481 139.74 394.767 139.068C394.053 138.382 393.5 137.584 393.108 136.674C392.716 135.75 392.52 134.742 392.52 133.65C392.52 132.558 392.716 131.557 393.108 130.647C393.5 129.723 394.053 128.925 394.767 128.253C395.481 127.567 396.321 127.035 397.287 126.657C398.253 126.279 399.303 126.09 400.437 126.09C401.585 126.09 402.635 126.279 403.587 126.657C404.553 127.035 405.393 127.567 406.107 128.253C406.821 128.925 407.374 129.723 407.766 130.647C408.158 131.557 408.354 132.558 408.354 133.65C408.354 134.742 408.158 135.75 407.766 136.674C407.374 137.598 406.821 138.396 406.107 139.068C405.393 139.74 404.553 140.265 403.587 140.643C402.635 141.021 401.592 141.21 400.458 141.21ZM400.437 138.816C401.179 138.816 401.865 138.69 402.495 138.438C403.125 138.186 403.671 137.829 404.133 137.367C404.595 136.891 404.952 136.345 405.204 135.729C405.47 135.099 405.603 134.406 405.603 133.65C405.603 132.894 405.47 132.208 405.204 131.592C404.952 130.962 404.595 130.416 404.133 129.954C403.671 129.478 403.125 129.114 402.495 128.862C401.865 128.61 401.179 128.484 400.437 128.484C399.695 128.484 399.009 128.61 398.379 128.862C397.763 129.114 397.217 129.478 396.741 129.954C396.279 130.416 395.915 130.962 395.649 131.592C395.397 132.208 395.271 132.894 395.271 133.65C395.271 134.392 395.397 135.078 395.649 135.708C395.915 136.338 396.279 136.891 396.741 137.367C397.203 137.829 397.749 138.186 398.379 138.438C399.009 138.69 399.695 138.816 400.437 138.816ZM414.261 141L409.389 126.3H412.224L416.571 139.593H415.164L419.679 126.3H422.199L426.588 139.593H425.223L429.675 126.3H432.279L427.407 141H424.509L420.498 129.009H421.254L417.18 141H414.261ZM438.536 141L445.151 126.3H447.839L454.475 141H451.619L445.928 127.749H447.02L441.35 141H438.536ZM441.581 137.598L442.316 135.456H450.254L450.989 137.598H441.581ZM456.344 141V126.3H463.232C464.996 126.3 466.34 126.65 467.264 127.35C468.188 128.036 468.65 128.96 468.65 130.122C468.65 130.906 468.468 131.578 468.104 132.138C467.74 132.684 467.25 133.111 466.634 133.419C466.032 133.713 465.374 133.86 464.66 133.86L465.038 133.104C465.864 133.104 466.606 133.258 467.264 133.566C467.922 133.86 468.44 134.294 468.818 134.868C469.21 135.442 469.406 136.156 469.406 137.01C469.406 138.27 468.923 139.25 467.957 139.95C466.991 140.65 465.556 141 463.652 141H456.344ZM459.074 138.858H463.484C464.506 138.858 465.29 138.69 465.836 138.354C466.382 138.018 466.655 137.479 466.655 136.737C466.655 136.009 466.382 135.477 465.836 135.141C465.29 134.791 464.506 134.616 463.484 134.616H458.864V132.495H462.938C463.89 132.495 464.618 132.327 465.122 131.991C465.64 131.655 465.899 131.151 465.899 130.479C465.899 129.793 465.64 129.282 465.122 128.946C464.618 128.61 463.89 128.442 462.938 128.442H459.074V138.858ZM479.208 141.21C478.06 141.21 477.003 141.021 476.037 140.643C475.071 140.265 474.231 139.74 473.517 139.068C472.803 138.382 472.25 137.584 471.858 136.674C471.466 135.75 471.27 134.742 471.27 133.65C471.27 132.558 471.466 131.557 471.858 130.647C472.25 129.723 472.803 128.925 473.517 128.253C474.231 127.567 475.071 127.035 476.037 126.657C477.003 126.279 478.053 126.09 479.187 126.09C480.335 126.09 481.385 126.279 482.337 126.657C483.303 127.035 484.143 127.567 484.857 128.253C485.571 128.925 486.124 129.723 486.516 130.647C486.908 131.557 487.104 132.558 487.104 133.65C487.104 134.742 486.908 135.75 486.516 136.674C486.124 137.598 485.571 138.396 484.857 139.068C484.143 139.74 483.303 140.265 482.337 140.643C481.385 141.021 480.342 141.21 479.208 141.21ZM479.187 138.816C479.929 138.816 480.615 138.69 481.245 138.438C481.875 138.186 482.421 137.829 482.883 137.367C483.345 136.891 483.702 136.345 483.954 135.729C484.22 135.099 484.353 134.406 484.353 133.65C484.353 132.894 484.22 132.208 483.954 131.592C483.702 130.962 483.345 130.416 482.883 129.954C482.421 129.478 481.875 129.114 481.245 128.862C480.615 128.61 479.929 128.484 479.187 128.484C478.445 128.484 477.759 128.61 477.129 128.862C476.513 129.114 475.967 129.478 475.491 129.954C475.029 130.416 474.665 130.962 474.399 131.592C474.147 132.208 474.021 132.894 474.021 133.65C474.021 134.392 474.147 135.078 474.399 135.708C474.665 136.338 475.029 136.891 475.491 137.367C475.953 137.829 476.499 138.186 477.129 138.438C477.759 138.69 478.445 138.816 479.187 138.816ZM496.318 141.21C494.302 141.21 492.72 140.643 491.572 139.509C490.438 138.375 489.871 136.737 489.871 134.595V126.3H492.601V134.49C492.601 136.002 492.923 137.101 493.567 137.787C494.225 138.473 495.149 138.816 496.339 138.816C497.529 138.816 498.446 138.473 499.09 137.787C499.734 137.101 500.056 136.002 500.056 134.49V126.3H502.744V134.595C502.744 136.737 502.17 138.375 501.022 139.509C499.888 140.643 498.32 141.21 496.318 141.21ZM509.283 141V128.61H504.411V126.3H516.885V128.61H512.013V141H509.283ZM531.542 141.21C530.422 141.21 529.379 141.028 528.413 140.664C527.461 140.286 526.628 139.761 525.914 139.089C525.214 138.403 524.668 137.598 524.276 136.674C523.884 135.75 523.688 134.742 523.688 133.65C523.688 132.558 523.884 131.55 524.276 130.626C524.668 129.702 525.221 128.904 525.935 128.232C526.649 127.546 527.482 127.021 528.434 126.657C529.386 126.279 530.429 126.09 531.563 126.09C532.767 126.09 533.866 126.3 534.86 126.72C535.854 127.126 536.694 127.735 537.38 128.547L535.616 130.206C535.084 129.632 534.489 129.205 533.831 128.925C533.173 128.631 532.459 128.484 531.689 128.484C530.919 128.484 530.212 128.61 529.568 128.862C528.938 129.114 528.385 129.471 527.909 129.933C527.447 130.395 527.083 130.941 526.817 131.571C526.565 132.201 526.439 132.894 526.439 133.65C526.439 134.406 526.565 135.099 526.817 135.729C527.083 136.359 527.447 136.905 527.909 137.367C528.385 137.829 528.938 138.186 529.568 138.438C530.212 138.69 530.919 138.816 531.689 138.816C532.459 138.816 533.173 138.676 533.831 138.396C534.489 138.102 535.084 137.661 535.616 137.073L537.38 138.753C536.694 139.551 535.854 140.16 534.86 140.58C533.866 141 532.76 141.21 531.542 141.21ZM546.576 141.21C545.428 141.21 544.371 141.021 543.405 140.643C542.439 140.265 541.599 139.74 540.885 139.068C540.171 138.382 539.618 137.584 539.226 136.674C538.834 135.75 538.638 134.742 538.638 133.65C538.638 132.558 538.834 131.557 539.226 130.647C539.618 129.723 540.171 128.925 540.885 128.253C541.599 127.567 542.439 127.035 543.405 126.657C544.371 126.279 545.421 126.09 546.555 126.09C547.703 126.09 548.753 126.279 549.705 126.657C550.671 127.035 551.511 127.567 552.225 128.253C552.939 128.925 553.492 129.723 553.884 130.647C554.276 131.557 554.472 132.558 554.472 133.65C554.472 134.742 554.276 135.75 553.884 136.674C553.492 137.598 552.939 138.396 552.225 139.068C551.511 139.74 550.671 140.265 549.705 140.643C548.753 141.021 547.71 141.21 546.576 141.21ZM546.555 138.816C547.297 138.816 547.983 138.69 548.613 138.438C549.243 138.186 549.789 137.829 550.251 137.367C550.713 136.891 551.07 136.345 551.322 135.729C551.588 135.099 551.721 134.406 551.721 133.65C551.721 132.894 551.588 132.208 551.322 131.592C551.07 130.962 550.713 130.416 550.251 129.954C549.789 129.478 549.243 129.114 548.613 128.862C547.983 128.61 547.297 128.484 546.555 128.484C545.813 128.484 545.127 128.61 544.497 128.862C543.881 129.114 543.335 129.478 542.859 129.954C542.397 130.416 542.033 130.962 541.767 131.592C541.515 132.208 541.389 132.894 541.389 133.65C541.389 134.392 541.515 135.078 541.767 135.708C542.033 136.338 542.397 136.891 542.859 137.367C543.321 137.829 543.867 138.186 544.497 138.438C545.127 138.69 545.813 138.816 546.555 138.816ZM564.17 141.21C563.05 141.21 562.007 141.028 561.041 140.664C560.089 140.286 559.256 139.761 558.542 139.089C557.842 138.403 557.296 137.598 556.904 136.674C556.512 135.75 556.316 134.742 556.316 133.65C556.316 132.558 556.512 131.55 556.904 130.626C557.296 129.702 557.849 128.904 558.563 128.232C559.277 127.546 560.11 127.021 561.062 126.657C562.014 126.279 563.057 126.09 564.191 126.09C565.395 126.09 566.494 126.3 567.488 126.72C568.482 127.126 569.322 127.735 570.008 128.547L568.244 130.206C567.712 129.632 567.117 129.205 566.459 128.925C565.801 128.631 565.087 128.484 564.317 128.484C563.547 128.484 562.84 128.61 562.196 128.862C561.566 129.114 561.013 129.471 560.537 129.933C560.075 130.395 559.711 130.941 559.445 131.571C559.193 132.201 559.067 132.894 559.067 133.65C559.067 134.406 559.193 135.099 559.445 135.729C559.711 136.359 560.075 136.905 560.537 137.367C561.013 137.829 561.566 138.186 562.196 138.438C562.84 138.69 563.547 138.816 564.317 138.816C565.087 138.816 565.801 138.676 566.459 138.396C567.117 138.102 567.712 137.661 568.244 137.073L570.008 138.753C569.322 139.551 568.482 140.16 567.488 140.58C566.494 141 565.388 141.21 564.17 141.21ZM575.059 137.535L574.912 134.301L582.619 126.3H585.685L579.28 133.104L577.768 134.763L575.059 137.535ZM572.623 141V126.3H575.353V141H572.623ZM582.871 141L577.243 134.301L579.049 132.306L586.063 141H582.871ZM589.94 141V128.61H585.068V126.3H597.542V128.61H592.67V141H589.94ZM596.774 141L603.389 126.3H606.077L612.713 141H609.857L604.166 127.749H605.258L599.588 141H596.774ZM599.819 137.598L600.554 135.456H608.492L609.227 137.598H599.819ZM614.582 141V126.3H617.312V141H614.582ZM621.288 141V126.3H624.018V138.69H631.704V141H621.288ZM638.314 141.21C637.166 141.21 636.067 141.049 635.017 140.727C633.967 140.391 633.134 139.964 632.518 139.446L633.463 137.325C634.051 137.787 634.779 138.172 635.647 138.48C636.515 138.788 637.404 138.942 638.314 138.942C639.084 138.942 639.707 138.858 640.183 138.69C640.659 138.522 641.009 138.298 641.233 138.018C641.457 137.724 641.569 137.395 641.569 137.031C641.569 136.583 641.408 136.226 641.086 135.96C640.764 135.68 640.344 135.463 639.826 135.309C639.322 135.141 638.755 134.987 638.125 134.847C637.509 134.707 636.886 134.546 636.256 134.364C635.64 134.168 635.073 133.923 634.555 133.629C634.051 133.321 633.638 132.915 633.316 132.411C632.994 131.907 632.833 131.263 632.833 130.479C632.833 129.681 633.043 128.953 633.463 128.295C633.897 127.623 634.548 127.091 635.416 126.699C636.298 126.293 637.411 126.09 638.755 126.09C639.637 126.09 640.512 126.202 641.38 126.426C642.248 126.65 643.004 126.972 643.648 127.392L642.787 129.513C642.129 129.121 641.45 128.834 640.75 128.652C640.05 128.456 639.378 128.358 638.734 128.358C637.978 128.358 637.362 128.449 636.886 128.631C636.424 128.813 636.081 129.051 635.857 129.345C635.647 129.639 635.542 129.975 635.542 130.353C635.542 130.801 635.696 131.165 636.004 131.445C636.326 131.711 636.739 131.921 637.243 132.075C637.761 132.229 638.335 132.383 638.965 132.537C639.595 132.677 640.218 132.838 640.834 133.02C641.464 133.202 642.031 133.44 642.535 133.734C643.053 134.028 643.466 134.427 643.774 134.931C644.096 135.435 644.257 136.072 644.257 136.842C644.257 137.626 644.04 138.354 643.606 139.026C643.186 139.684 642.535 140.216 641.653 140.622C640.771 141.014 639.658 141.21 638.314 141.21ZM649.242 136.128C649.242 135.61 649.326 135.155 649.494 134.763C649.662 134.371 649.879 134.021 650.145 133.713C650.411 133.405 650.691 133.118 650.985 132.852C651.293 132.586 651.58 132.327 651.846 132.075C652.112 131.823 652.329 131.557 652.497 131.277C652.665 130.997 652.749 130.682 652.749 130.332C652.749 129.744 652.511 129.268 652.035 128.904C651.559 128.54 650.922 128.358 650.124 128.358C649.354 128.358 648.682 128.498 648.108 128.778C647.548 129.058 647.079 129.457 646.701 129.975L644.664 128.652C645.252 127.854 646.022 127.231 646.974 126.783C647.926 126.321 649.053 126.09 650.355 126.09C651.377 126.09 652.273 126.244 653.043 126.552C653.813 126.846 654.415 127.28 654.849 127.854C655.283 128.414 655.5 129.1 655.5 129.912C655.5 130.472 655.409 130.962 655.227 131.382C655.059 131.802 654.835 132.173 654.555 132.495C654.289 132.803 654.002 133.097 653.694 133.377C653.386 133.643 653.092 133.909 652.812 134.175C652.546 134.441 652.329 134.728 652.161 135.036C651.993 135.344 651.909 135.708 651.909 136.128H649.242ZM650.586 141.147C650.096 141.147 649.69 140.986 649.368 140.664C649.06 140.342 648.906 139.957 648.906 139.509C648.906 139.061 649.06 138.683 649.368 138.375C649.69 138.053 650.096 137.892 650.586 137.892C651.076 137.892 651.475 138.053 651.783 138.375C652.091 138.683 652.245 139.061 652.245 139.509C652.245 139.957 652.091 140.342 651.783 140.664C651.475 140.986 651.076 141.147 650.586 141.147Z" fill="#08D9D6"/>
<path d="M8.208 251V150.2H57.888C69.12 150.2 79.008 152.264 87.552 156.392C96.096 160.424 102.768 166.184 107.568 173.672C112.368 181.16 114.768 190.088 114.768 200.456C114.768 210.92 112.368 219.944 107.568 227.528C102.768 235.016 96.096 240.824 87.552 244.952C79.008 248.984 69.12 251 57.888 251H8.208ZM42.192 224.504H56.448C61.248 224.504 65.424 223.592 68.976 221.768C72.624 219.944 75.456 217.256 77.472 213.704C79.488 210.056 80.496 205.64 80.496 200.456C80.496 195.368 79.488 191.048 77.472 187.496C75.456 183.944 72.624 181.256 68.976 179.432C65.424 177.608 61.248 176.696 56.448 176.696H42.192V224.504ZM127.177 251V150.2H175.705C185.113 150.2 193.225 151.736 200.041 154.808C206.953 157.88 212.281 162.296 216.025 168.056C219.769 173.72 221.641 180.44 221.641 188.216C221.641 195.992 219.769 202.712 216.025 208.376C212.281 213.944 206.953 218.216 200.041 221.192C193.225 224.168 185.113 225.656 175.705 225.656H146.041L161.161 211.688V251H127.177ZM187.513 251L162.745 214.28H198.745L223.801 251H187.513ZM161.161 215.432L146.041 200.024H173.545C178.249 200.024 181.705 198.968 183.913 196.856C186.217 194.744 187.369 191.864 187.369 188.216C187.369 184.568 186.217 181.688 183.913 179.576C181.705 177.464 178.249 176.408 173.545 176.408H146.041L161.161 161V215.432ZM320.817 251V150.2H348.753L400.017 211.544H387.057V150.2H420.177V251H392.241L340.977 189.656H353.937V251H320.817ZM466.936 229.4L465.064 192.104L503.08 150.2H540.088L497.464 197.144L478.6 216.44L466.936 229.4ZM436.552 251V150.2H469.96V251H436.552ZM502.792 251L473.128 211.832L495.16 188.504L542.104 251H502.792ZM577.765 187.64H622.693V212.12H577.765V187.64ZM580.069 225.368H630.469V251H546.661V150.2H628.597V175.832H580.069V225.368ZM643.552 251V150.2H692.08C701.488 150.2 709.6 151.736 716.416 154.808C723.328 157.88 728.656 162.296 732.4 168.056C736.144 173.72 738.016 180.44 738.016 188.216C738.016 195.992 736.144 202.712 732.4 208.376C728.656 213.944 723.328 218.216 716.416 221.192C709.6 224.168 701.488 225.656 692.08 225.656H662.416L677.536 211.688V251H643.552ZM703.888 251L679.12 214.28H715.12L740.176 251H703.888ZM677.536 215.432L662.416 200.024H689.92C694.624 200.024 698.08 198.968 700.288 196.856C702.592 194.744 703.744 191.864 703.744 188.216C703.744 184.568 702.592 181.688 700.288 179.576C698.08 177.464 694.624 176.408 689.92 176.408H662.416L677.536 161V215.432Z" fill="#FF2E63"/>
<g clip-path="url(#clip0_239_221)">
<g filter="url(#filter1_i_239_221)">
<path d="M304.698 164.469C304.649 164.376 304.596 164.298 304.537 164.21C304.279 163.849 303.967 163.544 303.567 163.368C303.567 163.368 303.567 163.363 303.562 163.363C303.552 163.358 303.548 163.363 303.538 163.363C303.255 163.239 302.948 163.167 302.626 163.167C302.538 163.167 302.48 163.234 302.397 163.239C302.163 163.265 301.963 163.353 301.744 163.446C301.514 163.544 301.305 163.637 301.12 163.797C301.056 163.854 300.963 163.854 300.905 163.916L300.027 164.846C299.842 164.934 299.613 165.027 299.355 165.12C299.096 165.213 298.843 165.306 298.516 165.399C298.141 165.507 297.683 165.616 297.219 165.724C296.82 165.817 296.435 165.91 295.972 166.003C295.421 166.112 294.782 166.22 294.143 166.329C293.622 166.417 293.124 166.504 292.545 166.592C291.818 166.701 290.994 166.799 290.18 166.902C289.546 166.98 288.947 167.062 288.259 167.14C287.362 167.238 286.358 167.326 285.373 167.414C284.647 167.481 283.955 167.553 283.18 167.61C282.073 167.698 280.859 167.765 279.665 167.838C278.89 167.884 278.163 167.941 277.354 167.982C275.975 168.049 274.483 168.101 273.001 168.148C272.26 168.174 271.572 168.21 270.807 168.225C268.525 168.303 266.132 168.334 263.626 168.334C261.369 168.334 259.214 168.303 257.128 168.256C256.445 168.241 255.807 168.215 255.144 168.199C254.602 168.184 254.091 168.158 253.564 168.142L250.434 163.482C254.442 163.291 258.819 163.167 263.626 163.167H273.376C274.722 163.167 275.814 162.009 275.814 160.583C275.814 159.157 274.721 158 273.376 158H263.626C258.185 158 252.457 158.119 247.041 158.429L239.08 146.587L260.101 131.733C260.998 131.102 261.393 129.924 261.081 128.834C260.769 127.744 259.828 127 258.751 127H224.626C223.578 127 222.647 127.713 222.31 128.767L212.56 159.767C212.234 160.816 212.565 161.968 213.394 162.64C213.833 162.991 214.354 163.167 214.876 163.167C215.349 163.167 215.817 163.022 216.226 162.733L235.019 149.454L241.333 158.847C232.114 159.689 224.728 161.296 222.759 164.174C222.691 164.267 222.617 164.345 222.559 164.448C222.335 164.861 222.188 165.29 222.188 165.75C222.188 166.179 222.305 166.582 222.5 166.969C222.564 167.093 222.681 167.212 222.768 167.336C222.939 167.579 223.115 167.827 223.363 168.054C223.407 168.09 223.422 168.137 223.466 168.173L261.188 208.153V235.795C241.747 238.316 241.688 241.39 241.688 243.25C241.688 250.628 259.965 251 263.626 251C267.287 251 285.563 250.628 285.563 243.25C285.563 241.385 285.505 238.316 266.063 235.795V208.153L303.786 168.173C303.83 168.137 303.845 168.091 303.888 168.049C304.137 167.822 304.313 167.579 304.483 167.331C304.566 167.207 304.683 167.094 304.751 166.964C304.946 166.582 305.063 166.179 305.063 165.75C305.064 165.275 304.907 164.851 304.698 164.469ZM245.632 167.734C245.003 167.688 244.365 167.646 243.765 167.6C242.624 167.507 241.552 167.409 240.514 167.305C240.075 167.259 239.597 167.217 239.178 167.176C237.774 167.026 236.462 166.866 235.273 166.696C235.034 166.659 234.849 166.623 234.62 166.592C233.689 166.453 232.811 166.308 232.026 166.163C231.695 166.101 231.407 166.039 231.1 165.977C230.72 165.9 230.383 165.817 230.047 165.74C233.143 165.022 238.169 164.324 244.687 163.838L247.383 167.842C246.798 167.806 246.193 167.775 245.632 167.734Z" fill="#FF2E63"/>
</g>
<g filter="url(#filter2_d_239_221)">
<path d="M302.626 142.5C291.545 142.5 282.151 151.841 280.689 163.167C289.298 162.572 295.543 161.234 297.751 160.583C299.131 159.116 300.676 158 302.626 158C303.596 158 304.547 158.201 305.439 158.599C308.169 159.793 309.939 162.603 309.939 165.75C309.939 168.178 308.847 170.462 306.872 172.172L296.737 182.924L296.235 185.45C296.103 186.122 296.225 186.819 296.581 187.393C296.932 187.966 297.488 188.364 298.117 188.504C299.599 188.834 301.11 189 302.626 189C314.721 189 324.564 178.568 324.564 165.75C324.564 152.931 314.721 142.5 302.626 142.5Z" fill="#08D9D6"/>
</g>
</g>
<g filter="url(#filter3_dd_239_221)">
<path d="M336.32 258.088C336.944 258.088 337.424 258.4 337.76 259.024C338.144 259.6 338.336 260.344 338.336 261.256C338.336 262.36 338.168 263.224 337.832 263.848C337.496 264.472 336.968 265.024 336.248 265.504C332.12 268.288 329.096 270.352 327.176 271.696L322.568 274.792C320.744 284.728 318.344 292.528 315.368 298.192C312.44 303.904 308.696 306.76 304.136 306.76C301.688 306.76 299.696 305.992 298.16 304.456C296.624 302.968 295.856 301 295.856 298.552C295.856 295.144 297.2 291.472 299.888 287.536C302.576 283.648 307.616 278.848 315.008 273.136L315.44 270.328C314.624 271.624 313.544 272.632 312.2 273.352C310.904 274.024 309.608 274.36 308.312 274.36C305.336 274.36 302.96 273.28 301.184 271.12C299.408 268.96 298.52 266.128 298.52 262.624C298.52 258.784 299.408 255.16 301.184 251.752C302.96 248.296 305.312 245.536 308.24 243.472C311.216 241.36 314.36 240.304 317.672 240.304C318.728 240.304 319.424 240.52 319.76 240.952C320.144 241.336 320.456 242.056 320.696 243.112C321.608 242.92 322.664 242.824 323.864 242.824C325.064 242.824 325.904 243.016 326.384 243.4C326.912 243.736 327.176 244.432 327.176 245.488C327.176 246.064 327.152 246.52 327.104 246.856C326.912 248.344 326.312 252.112 325.304 258.16C325.112 259.312 324.896 260.584 324.656 261.976C324.464 263.32 324.248 264.76 324.008 266.296C327.704 263.416 331.256 260.872 334.664 258.664C335.288 258.28 335.84 258.088 336.32 258.088ZM310.904 267.088C312.008 267.088 313.064 266.416 314.072 265.072C315.08 263.728 315.8 261.808 316.232 259.312L318.536 247C316.568 247.048 314.744 247.816 313.064 249.304C311.384 250.744 310.04 252.664 309.032 255.064C308.024 257.464 307.52 260.008 307.52 262.696C307.52 264.184 307.808 265.288 308.384 266.008C309.008 266.728 309.848 267.088 310.904 267.088ZM304.928 299.776C306.128 299.776 307.472 298.336 308.96 295.456C310.496 292.576 311.96 287.992 313.352 281.704C309.656 284.872 306.992 287.728 305.36 290.272C303.728 292.816 302.912 295.048 302.912 296.968C302.912 297.784 303.056 298.456 303.344 298.984C303.68 299.512 304.208 299.776 304.928 299.776ZM342.062 274.36C339.086 274.36 336.71 273.28 334.934 271.12C333.158 268.96 332.27 266.128 332.27 262.624C332.27 258.784 333.158 255.16 334.934 251.752C336.71 248.296 339.062 245.536 341.99 243.472C344.966 241.36 348.11 240.304 351.422 240.304C352.478 240.304 353.174 240.52 353.51 240.952C353.894 241.336 354.206 242.056 354.446 243.112C355.454 242.92 356.51 242.824 357.614 242.824C359.966 242.824 361.142 243.664 361.142 245.344C361.142 246.352 360.782 248.752 360.062 252.544C358.958 258.064 358.406 261.904 358.406 264.064C358.406 264.784 358.574 265.36 358.91 265.792C359.294 266.224 359.774 266.44 360.35 266.44C361.262 266.44 362.366 265.864 363.662 264.712C364.958 263.512 366.71 261.592 368.918 258.952C369.494 258.28 370.142 257.944 370.862 257.944C371.486 257.944 371.966 258.232 372.302 258.808C372.686 259.384 372.878 260.176 372.878 261.184C372.878 263.104 372.422 264.592 371.51 265.648C369.542 268.096 367.454 270.16 365.246 271.84C363.038 273.52 360.902 274.36 358.838 274.36C357.254 274.36 355.79 273.832 354.446 272.776C353.15 271.672 352.166 270.184 351.494 268.312C348.998 272.344 345.854 274.36 342.062 274.36ZM344.654 267.088C345.71 267.088 346.718 266.464 347.678 265.216C348.638 263.968 349.334 262.312 349.766 260.248L352.43 247C350.414 247.048 348.542 247.816 346.814 249.304C345.134 250.744 343.79 252.664 342.782 255.064C341.774 257.464 341.27 260.008 341.27 262.696C341.27 264.184 341.558 265.288 342.134 266.008C342.758 266.728 343.598 267.088 344.654 267.088ZM372.138 274.36C370.314 274.36 369.018 273.4 368.25 271.48C367.53 269.56 367.17 266.488 367.17 262.264C367.17 256.024 368.058 250.096 369.834 244.48C370.266 243.088 370.962 242.08 371.922 241.456C372.93 240.784 374.322 240.448 376.098 240.448C377.058 240.448 377.73 240.568 378.114 240.808C378.498 241.048 378.69 241.504 378.69 242.176C378.69 242.944 378.33 244.672 377.61 247.36C377.13 249.28 376.746 250.96 376.458 252.4C376.17 253.792 375.93 255.544 375.738 257.656C377.034 253.912 378.57 250.744 380.346 248.152C382.17 245.56 384.018 243.64 385.89 242.392C387.81 241.096 389.61 240.448 391.29 240.448C392.97 240.448 394.146 240.832 394.818 241.6C395.538 242.368 395.898 243.544 395.898 245.128C395.898 246.664 395.442 249.448 394.53 253.48C394.146 255.208 393.882 256.504 393.738 257.368C396.138 251.464 398.802 247.168 401.73 244.48C404.658 241.792 407.394 240.448 409.938 240.448C413.058 240.448 414.618 242.008 414.618 245.128C414.618 247 414.09 250.384 413.034 255.28C412.122 259.456 411.666 262.216 411.666 263.56C411.666 265.48 412.362 266.44 413.754 266.44C414.714 266.44 415.842 265.864 417.138 264.712C418.482 263.512 420.258 261.592 422.466 258.952C423.042 258.28 423.69 257.944 424.41 257.944C425.034 257.944 425.514 258.232 425.85 258.808C426.234 259.384 426.426 260.176 426.426 261.184C426.426 263.104 425.97 264.592 425.058 265.648C422.994 268.192 420.762 270.28 418.362 271.912C416.01 273.544 413.322 274.36 410.298 274.36C407.85 274.36 406.002 273.664 404.754 272.272C403.506 270.832 402.882 268.768 402.882 266.08C402.882 264.736 403.218 262.336 403.89 258.88C404.514 255.856 404.826 253.768 404.826 252.616C404.826 251.848 404.562 251.464 404.034 251.464C403.41 251.464 402.522 252.28 401.37 253.912C400.218 255.496 399.066 257.608 397.914 260.248C396.762 262.888 395.826 265.672 395.106 268.6C394.578 270.904 393.954 272.44 393.234 273.208C392.562 273.976 391.458 274.36 389.922 274.36C388.338 274.36 387.138 273.616 386.322 272.128C385.554 270.592 385.17 268.744 385.17 266.584C385.17 264.76 385.41 262.12 385.89 258.664C386.274 255.592 386.466 253.576 386.466 252.616C386.466 251.848 386.202 251.464 385.674 251.464C384.954 251.464 384.042 252.328 382.938 254.056C381.834 255.784 380.754 257.992 379.698 260.68C378.69 263.368 377.874 266.008 377.25 268.6C376.722 270.856 376.098 272.392 375.378 273.208C374.706 273.976 373.626 274.36 372.138 274.36ZM446.38 260.104C447.004 260.104 447.484 260.392 447.82 260.968C448.204 261.544 448.396 262.336 448.396 263.344C448.396 265.072 447.988 266.56 447.172 267.808C445.828 269.872 444.052 271.48 441.844 272.632C439.684 273.784 437.092 274.36 434.068 274.36C429.46 274.36 425.884 272.992 423.34 270.256C420.796 267.472 419.524 263.728 419.524 259.024C419.524 255.712 420.22 252.64 421.612 249.808C423.004 246.928 424.924 244.648 427.372 242.968C429.868 241.288 432.676 240.448 435.796 240.448C438.58 240.448 440.812 241.288 442.492 242.968C444.172 244.6 445.012 246.832 445.012 249.664C445.012 252.976 443.812 255.832 441.412 258.232C439.06 260.584 435.028 262.456 429.316 263.848C430.468 266.056 432.412 267.16 435.148 267.16C437.116 267.16 438.724 266.704 439.972 265.792C441.268 264.88 442.756 263.344 444.436 261.184C445.012 260.464 445.66 260.104 446.38 260.104ZM434.572 247.504C432.796 247.504 431.284 248.536 430.036 250.6C428.836 252.664 428.236 255.16 428.236 258.088V258.232C431.068 257.56 433.3 256.552 434.932 255.208C436.564 253.864 437.38 252.304 437.38 250.528C437.38 249.616 437.116 248.896 436.588 248.368C436.108 247.792 435.436 247.504 434.572 247.504Z" fill="#08D9D6"/>
</g>
<defs>
<filter id="filter0_d_239_221" x="173" y="0" width="397" height="397" filterUnits="userSpaceOnUse" color-interpolation-filters="sRGB">
<feFlood flood-opacity="0" result="BackgroundImageFix"/>
<feColorMatrix in="SourceAlpha" type="matrix" values="0 0 0 0 0 0 0 0 0 0 0 0 0 0 0 0 0 0 127 0" result="hardAlpha"/>
<feMorphology radius="2" operator="dilate" in="SourceAlpha" result="effect1_dropShadow_239_221"/>
<feOffset/>
<feGaussianBlur stdDeviation="10"/>
<feComposite in2="hardAlpha" operator="out"/>
<feColorMatrix type="matrix" values="0 0 0 0 1 0 0 0 0 0.180392 0 0 0 0 0.388235 0 0 0 1 0"/>
<feBlend mode="normal" in2="BackgroundImageFix" result="effect1_dropShadow_239_221"/>
<feBlend mode="normal" in="SourceGraphic" in2="effect1_dropShadow_239_221" result="shape"/>
</filter>
<filter id="filter1_i_239_221" x="212.436" y="127" width="92.627" height="128" filterUnits="userSpaceOnUse" color-interpolation-filters="sRGB">
<feFlood flood-opacity="0" result="BackgroundImageFix"/>
<feBlend mode="normal" in="SourceGraphic" in2="BackgroundImageFix" result="shape"/>
<feColorMatrix in="SourceAlpha" type="matrix" values="0 0 0 0 0 0 0 0 0 0 0 0 0 0 0 0 0 0 127 0" result="hardAlpha"/>
<feOffset dy="4"/>
<feGaussianBlur stdDeviation="2"/>
<feComposite in2="hardAlpha" operator="arithmetic" k2="-1" k3="1"/>
<feColorMatrix type="matrix" values="0 0 0 0 0 0 0 0 0 0 0 0 0 0 0 0 0 0 0.25 0"/>
<feBlend mode="normal" in2="shape" result="effect1_innerShadow_239_221"/>
</filter>
<filter id="filter2_d_239_221" x="260.689" y="122.5" width="83.875" height="86.4998" filterUnits="userSpaceOnUse" color-interpolation-filters="sRGB">
<feFlood flood-opacity="0" result="BackgroundImageFix"/>
<feColorMatrix in="SourceAlpha" type="matrix" values="0 0 0 0 0 0 0 0 0 0 0 0 0 0 0 0 0 0 127 0" result="hardAlpha"/>
<feOffset/>
<feGaussianBlur stdDeviation="10"/>
<feComposite in2="hardAlpha" operator="out"/>
<feColorMatrix type="matrix" values="0 0 0 0 0.0313726 0 0 0 0 0.85098 0 0 0 0 0.839216 0 0 0 0.6 0"/>
<feBlend mode="normal" in2="BackgroundImageFix" result="effect1_dropShadow_239_221"/>
<feBlend mode="normal" in="SourceGraphic" in2="effect1_dropShadow_239_221" result="shape"/>
</filter>
<filter id="filter3_dd_239_221" x="291.856" y="240.304" width="168.54" height="78.4561" filterUnits="userSpaceOnUse" color-interpolation-filters="sRGB">
<feFlood flood-opacity="0" result="BackgroundImageFix"/>
<feColorMatrix in="SourceAlpha" type="matrix" values="0 0 0 0 0 0 0 0 0 0 0 0 0 0 0 0 0 0 127 0" result="hardAlpha"/>
<feOffset dx="8" dy="8"/>
<feGaussianBlur stdDeviation="2"/>
<feColorMatrix type="matrix" values="0 0 0 0 0 0 0 0 0 0 0 0 0 0 0 0 0 0 0.25 0"/>
<feBlend mode="normal" in2="BackgroundImageFix" result="effect1_dropShadow_239_221"/>
<feColorMatrix in="SourceAlpha" type="matrix" values="0 0 0 0 0 0 0 0 0 0 0 0 0 0 0 0 0 0 127 0" result="hardAlpha"/>
<feOffset dy="4"/>
<feGaussianBlur stdDeviation="2"/>
<feColorMatrix type="matrix" values="0 0 0 0 0 0 0 0 0 0 0 0 0 0 0 0 0 0 0.25 0"/>
<feBlend mode="normal" in2="effect1_dropShadow_239_221" result="effect2_dropShadow_239_221"/>
<feBlend mode="normal" in="SourceGraphic" in2="effect2_dropShadow_239_221" result="shape"/>
</filter>
<clipPath id="clip0_239_221">
<rect width="117" height="124" fill="white" transform="translate(210 127)"/>
</clipPath>
</defs>
</svg>
